# xmcd
#
# Track frame offsets:
#	150
#	12195
#	24350
#	34815
#	61490
#	82986
#	87103
#	104613
#	119117
#	135610
#	137968
#	156516
#	177378
#	185224
#	212909
#	232872
#	251133
#	257721
#
# Disc length: 4525 seconds
#
# Revision: 1
# Processed by: cddbd v1.5.1PL2 Copyright (c) Steve Scherf et al.
# Submitted via: audiograbber 1.81.02
#
DISCID=0711ab12
DTITLE=Kimmy "Preacher" Robins - The Legendary Jimmy "Preacher" Robins
DYEAR=1900
DGENRE=R&B
TTITLE0=It's Real - Part 1
TTITLE1=It's Real - Part 2
TTITLE2=Prime Rib Live
TTITLE3=Satin Doll
TTITLE4=Something
TTITLE5=Turning Point
TTITLE6=Your Precious Love
TTITLE7=You've Got What I Want
TTITLE8=Fly Me To The Moon
TTITLE9=Midnight Hour
TTITLE10=I Made It Over
TTITLE11=I Just Can't Please You
TTITLE12=Unknown Track 13
TTITLE13=Unknown Track 14
TTITLE14=Unknown Track 15
TTITLE15=Unknown Track 16
TTITLE16=Unknown Track 17
TTITLE17=Unknown Track 19
EXTD=
EXTT0=
EXTT1=
EXTT2=
EXTT3=
EXTT4=
EXTT5=
EXTT6=
EXTT7=
EXTT8=
EXTT9=
EXTT10=
EXTT11=
EXTT12=
EXTT13=
EXTT14=
EXTT15=
EXTT16=
EXTT17=
PLAYORDER=
